<svg width="227" height="60" viewBox="0 0 227 60" fill="none" xmlns="http://www.w3.org/2000/svg">
<path d="M72.2588 40H67.7266V22.2197H68.8223L70.3164 23.9463C71.0469 23.2822 71.8714 22.7731 72.79 22.4189C73.7197 22.0537 74.6882 21.8711 75.6953 21.8711C76.7799 21.8711 77.8037 22.0814 78.7666 22.502C79.7295 22.9115 80.5706 23.4814 81.29 24.2119C82.0094 24.9313 82.5739 25.778 82.9834 26.752C83.404 27.7148 83.6143 28.7441 83.6143 29.8398V40H79.082V29.8398C79.082 29.375 78.9935 28.9378 78.8164 28.5283C78.6393 28.1077 78.3958 27.7425 78.0859 27.4326C77.776 27.1227 77.4163 26.8792 77.0068 26.7021C76.5973 26.5251 76.1602 26.4365 75.6953 26.4365C75.2194 26.4365 74.7712 26.5251 74.3506 26.7021C73.93 26.8792 73.5648 27.1227 73.2549 27.4326C72.945 27.7425 72.7015 28.1077 72.5244 28.5283C72.3473 28.9378 72.2588 29.375 72.2588 29.8398V40ZM140.209 40H129.85V35.4844H140.209C140.519 35.4844 140.785 35.3737 141.006 35.1523C141.227 34.931 141.338 34.6654 141.338 34.3555C141.338 34.0345 141.227 33.8242 141.006 33.7246C140.785 33.625 140.519 33.5752 140.209 33.5752H135.494C134.708 33.5752 133.972 33.4258 133.286 33.127C132.6 32.8281 132.002 32.4242 131.493 31.915C130.984 31.3949 130.58 30.7917 130.281 30.1055C129.993 29.4193 129.85 28.6833 129.85 27.8975C129.85 27.1117 129.993 26.3757 130.281 25.6895C130.58 25.0033 130.984 24.4056 131.493 23.8965C132.002 23.3874 132.6 22.9889 133.286 22.7012C133.972 22.4023 134.708 22.2529 135.494 22.2529H144.675V26.7686H135.494C135.184 26.7686 134.919 26.8792 134.697 27.1006C134.476 27.3219 134.365 27.5876 134.365 27.8975C134.365 28.2184 134.476 28.4951 134.697 28.7275C134.919 28.9489 135.184 29.0596 135.494 29.0596H140.209C140.984 29.0596 141.714 29.1924 142.4 29.458C143.087 29.7126 143.684 30.0723 144.193 30.5371C144.702 31.002 145.106 31.5609 145.405 32.2139C145.704 32.8669 145.854 33.5807 145.854 34.3555C145.854 35.1413 145.704 35.8773 145.405 36.5635C145.106 37.2386 144.702 37.8363 144.193 38.3564C143.684 38.8656 143.087 39.2695 142.4 39.5684C141.714 39.8561 140.984 40 140.209 40Z" fill="#5171A5"/>
<path d="M93.9238 35.6504C94.1009 35.7057 94.278 35.7445 94.4551 35.7666C94.6322 35.7777 94.8092 35.7832 94.9863 35.7832C95.429 35.7832 95.8551 35.7223 96.2646 35.6006C96.6742 35.4788 97.056 35.3073 97.4102 35.0859C97.7754 34.8535 98.0964 34.5768 98.373 34.2559C98.6608 33.9238 98.8932 33.5586 99.0703 33.1602L102.391 36.4971C101.97 37.0947 101.483 37.6315 100.93 38.1074C100.387 38.5833 99.7952 38.9873 99.1533 39.3193C98.5225 39.6514 97.8529 39.9004 97.1445 40.0664C96.4473 40.2435 95.7279 40.332 94.9863 40.332C93.7357 40.332 92.557 40.0996 91.4502 39.6348C90.3545 39.1699 89.3916 38.5225 88.5615 37.6924C87.7425 36.8623 87.0951 35.8773 86.6191 34.7373C86.1432 33.5863 85.9053 32.3245 85.9053 30.9521C85.9053 29.5465 86.1432 28.2627 86.6191 27.1006C87.0951 25.9385 87.7425 24.9479 88.5615 24.1289C89.3916 23.3099 90.3545 22.6735 91.4502 22.2197C92.557 21.766 93.7357 21.5391 94.9863 21.5391C95.7279 21.5391 96.4528 21.6276 97.1611 21.8047C97.8695 21.9818 98.5391 22.2363 99.1699 22.5684C99.8118 22.9004 100.41 23.3099 100.963 23.7969C101.516 24.2728 102.003 24.8096 102.424 25.4072L93.9238 35.6504ZM96.248 26.3037C96.0378 26.2262 95.8275 26.1764 95.6172 26.1543C95.418 26.1322 95.2077 26.1211 94.9863 26.1211C94.3665 26.1211 93.7799 26.2373 93.2266 26.4697C92.6842 26.6911 92.2083 27.012 91.7988 27.4326C91.4004 27.8532 91.085 28.3623 90.8525 28.96C90.6201 29.5465 90.5039 30.2106 90.5039 30.9521C90.5039 31.1182 90.5094 31.3063 90.5205 31.5166C90.5426 31.7269 90.5703 31.9427 90.6035 32.1641C90.6478 32.3743 90.6976 32.5791 90.7529 32.7783C90.8083 32.9775 90.8802 33.1546 90.9688 33.3096L96.248 26.3037ZM127.16 33.5752C127.16 34.5049 126.983 35.3848 126.629 36.2148C126.275 37.0339 125.788 37.7477 125.168 38.3564C124.559 38.9652 123.84 39.4466 123.01 39.8008C122.191 40.1549 121.311 40.332 120.37 40.332C119.529 40.332 118.721 40.1882 117.946 39.9004C117.172 39.6016 116.469 39.1699 115.838 38.6055C115.218 39.1699 114.521 39.6016 113.746 39.9004C112.982 40.1882 112.174 40.332 111.322 40.332C110.382 40.332 109.502 40.1549 108.683 39.8008C107.864 39.4466 107.144 38.9652 106.524 38.3564C105.916 37.7477 105.434 37.0339 105.08 36.2148C104.726 35.3848 104.549 34.5049 104.549 33.5752V22.2529H109.081V33.5752C109.081 33.8851 109.136 34.1784 109.247 34.4551C109.369 34.7207 109.529 34.9587 109.729 35.1689C109.939 35.3682 110.177 35.5286 110.442 35.6504C110.719 35.7611 111.012 35.8164 111.322 35.8164C111.632 35.8164 111.925 35.7611 112.202 35.6504C112.479 35.5286 112.722 35.3682 112.933 35.1689C113.143 34.9587 113.303 34.7207 113.414 34.4551C113.536 34.1784 113.597 33.8851 113.597 33.5752V22.2529H118.112V33.5752C118.112 33.8851 118.173 34.1784 118.295 34.4551C118.417 34.7207 118.577 34.9587 118.776 35.1689C118.987 35.3682 119.225 35.5286 119.49 35.6504C119.767 35.7611 120.06 35.8164 120.37 35.8164C120.68 35.8164 120.973 35.7611 121.25 35.6504C121.527 35.5286 121.765 35.3682 121.964 35.1689C122.174 34.9587 122.34 34.7207 122.462 34.4551C122.584 34.1784 122.645 33.8851 122.645 33.5752V22.2529H127.16V33.5752ZM152.843 46.7734H148.277V22.2197H149.373L151.183 24.3613C151.592 23.974 152.04 23.6087 152.527 23.2656C153.014 22.9225 153.518 22.6292 154.038 22.3857C154.569 22.1312 155.117 21.932 155.682 21.7881C156.246 21.6442 156.816 21.5723 157.392 21.5723C158.642 21.5723 159.815 21.7992 160.911 22.2529C162.018 22.6956 162.981 23.3265 163.8 24.1455C164.63 24.9645 165.283 25.9551 165.759 27.1172C166.235 28.2682 166.473 29.5465 166.473 30.9521C166.473 32.4131 166.235 33.7301 165.759 34.9033C165.283 36.0654 164.63 37.056 163.8 37.875C162.981 38.6829 162.018 39.3027 160.911 39.7344C159.815 40.166 158.642 40.3818 157.392 40.3818C156.993 40.3818 156.595 40.3376 156.196 40.249C155.809 40.1605 155.422 40.0443 155.034 39.9004C154.658 39.7454 154.282 39.5739 153.905 39.3857C153.54 39.1976 153.186 39.0039 152.843 38.8047V46.7734ZM161.924 30.9521C161.924 30.1995 161.802 29.5244 161.559 28.9268C161.326 28.3291 161.005 27.8255 160.596 27.416C160.186 26.9954 159.705 26.6745 159.151 26.4531C158.598 26.2318 158.011 26.1211 157.392 26.1211C156.772 26.1211 156.185 26.2318 155.632 26.4531C155.09 26.6745 154.614 26.9954 154.204 27.416C153.795 27.8255 153.468 28.3291 153.225 28.9268C152.992 29.5244 152.876 30.1995 152.876 30.9521C152.876 31.6715 152.992 32.3301 153.225 32.9277C153.468 33.5254 153.795 34.0345 154.204 34.4551C154.614 34.8757 155.09 35.2021 155.632 35.4346C156.185 35.667 156.772 35.7832 157.392 35.7832C158.011 35.7832 158.598 35.667 159.151 35.4346C159.705 35.2021 160.186 34.8757 160.596 34.4551C161.005 34.0345 161.326 33.5254 161.559 32.9277C161.802 32.3301 161.924 31.6715 161.924 30.9521ZM186.212 40H185.116L183.356 37.5596C182.925 37.9469 182.465 38.3122 181.979 38.6553C181.503 38.9873 180.999 39.2806 180.468 39.5352C179.937 39.7786 179.389 39.9723 178.824 40.1162C178.271 40.2601 177.706 40.332 177.131 40.332C175.88 40.332 174.701 40.1217 173.595 39.7012C172.499 39.2806 171.536 38.6719 170.706 37.875C169.887 37.0671 169.24 36.082 168.764 34.9199C168.288 33.7578 168.05 32.4352 168.05 30.9521C168.05 29.5687 168.288 28.3014 168.764 27.1504C169.24 25.9883 169.887 24.9922 170.706 24.1621C171.536 23.332 172.499 22.6901 173.595 22.2363C174.701 21.7715 175.88 21.5391 177.131 21.5391C177.706 21.5391 178.276 21.611 178.841 21.7549C179.405 21.8988 179.953 22.098 180.484 22.3525C181.016 22.6071 181.519 22.9059 181.995 23.249C182.482 23.5921 182.936 23.9629 183.356 24.3613L185.116 22.2529H186.212V40ZM181.646 30.9521C181.646 30.3324 181.525 29.7347 181.281 29.1592C181.049 28.5726 180.728 28.0579 180.318 27.6152C179.909 27.1615 179.427 26.8018 178.874 26.5361C178.332 26.2594 177.751 26.1211 177.131 26.1211C176.511 26.1211 175.924 26.2262 175.371 26.4365C174.829 26.6468 174.353 26.9567 173.943 27.3662C173.545 27.7757 173.229 28.2848 172.997 28.8936C172.765 29.4912 172.648 30.1774 172.648 30.9521C172.648 31.7269 172.765 32.4186 172.997 33.0273C173.229 33.625 173.545 34.1286 173.943 34.5381C174.353 34.9476 174.829 35.2575 175.371 35.4678C175.924 35.6781 176.511 35.7832 177.131 35.7832C177.751 35.7832 178.332 35.6504 178.874 35.3848C179.427 35.1081 179.909 34.7484 180.318 34.3057C180.728 33.8519 181.049 33.3372 181.281 32.7617C181.525 32.1751 181.646 31.5719 181.646 30.9521ZM205.221 25.7559L201.9 29.0928C201.734 28.6279 201.507 28.2129 201.22 27.8477C200.932 27.4714 200.605 27.1559 200.24 26.9014C199.886 26.6468 199.499 26.4531 199.078 26.3203C198.658 26.1875 198.226 26.1211 197.783 26.1211C197.163 26.1211 196.577 26.2484 196.023 26.5029C195.481 26.7575 195.005 27.1172 194.596 27.582C194.197 28.0358 193.882 28.5781 193.649 29.209C193.417 29.8398 193.301 30.5371 193.301 31.3008C193.301 31.9206 193.417 32.5016 193.649 33.0439C193.882 33.5863 194.197 34.0622 194.596 34.4717C195.005 34.8812 195.481 35.2021 196.023 35.4346C196.577 35.667 197.163 35.7832 197.783 35.7832C198.226 35.7832 198.652 35.7223 199.062 35.6006C199.471 35.4788 199.853 35.3073 200.207 35.0859C200.572 34.8535 200.893 34.5768 201.17 34.2559C201.458 33.9238 201.69 33.5586 201.867 33.1602L205.188 36.4971C204.767 37.0947 204.28 37.6315 203.727 38.1074C203.184 38.5833 202.592 38.9873 201.95 39.3193C201.319 39.6514 200.65 39.9004 199.941 40.0664C199.244 40.2435 198.525 40.332 197.783 40.332C196.533 40.332 195.354 40.0996 194.247 39.6348C193.151 39.1589 192.188 38.5114 191.358 37.6924C190.539 36.8734 189.892 35.916 189.416 34.8203C188.94 33.7246 188.702 32.5514 188.702 31.3008C188.702 29.9395 188.94 28.6667 189.416 27.4824C189.892 26.2982 190.539 25.2689 191.358 24.3945C192.188 23.5091 193.151 22.8118 194.247 22.3027C195.354 21.7936 196.533 21.5391 197.783 21.5391C198.525 21.5391 199.25 21.6331 199.958 21.8213C200.677 22.0094 201.358 22.2861 202 22.6514C202.653 23.0055 203.251 23.4427 203.793 23.9629C204.346 24.4831 204.822 25.0807 205.221 25.7559ZM214.252 35.6504C214.429 35.7057 214.606 35.7445 214.783 35.7666C214.96 35.7777 215.137 35.7832 215.314 35.7832C215.757 35.7832 216.183 35.7223 216.593 35.6006C217.002 35.4788 217.384 35.3073 217.738 35.0859C218.104 34.8535 218.424 34.5768 218.701 34.2559C218.989 33.9238 219.221 33.5586 219.398 33.1602L222.719 36.4971C222.298 37.0947 221.811 37.6315 221.258 38.1074C220.715 38.5833 220.123 38.9873 219.481 39.3193C218.851 39.6514 218.181 39.9004 217.473 40.0664C216.775 40.2435 216.056 40.332 215.314 40.332C214.064 40.332 212.885 40.0996 211.778 39.6348C210.683 39.1699 209.72 38.5225 208.89 37.6924C208.071 36.8623 207.423 35.8773 206.947 34.7373C206.471 33.5863 206.233 32.3245 206.233 30.9521C206.233 29.5465 206.471 28.2627 206.947 27.1006C207.423 25.9385 208.071 24.9479 208.89 24.1289C209.72 23.3099 210.683 22.6735 211.778 22.2197C212.885 21.766 214.064 21.5391 215.314 21.5391C216.056 21.5391 216.781 21.6276 217.489 21.8047C218.198 21.9818 218.867 22.2363 219.498 22.5684C220.14 22.9004 220.738 23.3099 221.291 23.7969C221.844 24.2728 222.331 24.8096 222.752 25.4072L214.252 35.6504ZM216.576 26.3037C216.366 26.2262 216.156 26.1764 215.945 26.1543C215.746 26.1322 215.536 26.1211 215.314 26.1211C214.695 26.1211 214.108 26.2373 213.555 26.4697C213.012 26.6911 212.536 27.012 212.127 27.4326C211.729 27.8532 211.413 28.3623 211.181 28.96C210.948 29.5465 210.832 30.2106 210.832 30.9521C210.832 31.1182 210.838 31.3063 210.849 31.5166C210.871 31.7269 210.898 31.9427 210.932 32.1641C210.976 32.3743 211.026 32.5791 211.081 32.7783C211.136 32.9775 211.208 33.1546 211.297 33.3096L216.576 26.3037Z" fill="#F5F5F5"/>
<path d="M50 42.5C50 43.163 49.7366 43.7989 49.2678 44.2678C48.7989 44.7366 48.163 45 47.5 45C46.837 45 46.2011 44.7366 45.7322 44.2678C45.2634 43.7989 45 43.163 45 42.5V12.5C45 11.837 44.7366 11.2011 44.2678 10.7322C43.7989 10.2634 43.163 10 42.5 10H7.5C6.83696 10 6.20107 10.2634 5.73223 10.7322C5.26339 11.2011 5 11.837 5 12.5V45C5 46.3261 5.52678 47.5979 6.46447 48.5355C7.40215 49.4732 8.67392 50 10 50H47.5C51.635 50 55 46.635 55 42.5V17.5H50V42.5ZM30 17.5H37.5V22.5H30V17.5ZM30 27.5H37.5V32.5H30V27.5ZM12.5 17.5H25V32.5H12.5V17.5ZM12.5 42.5V37.5H37.5V42.5H12.5Z" fill="#5171A5"/>
</svg>
